<?xml version="1.0" encoding="utf-8"?>
<!-- Generator: Adobe Illustrator 24.1.1, SVG Export Plug-In . SVG Version: 6.00 Build 0)  -->
<svg version="1.1" id="Layer_1" xmlns="http://www.w3.org/2000/svg" xmlns:xlink="http://www.w3.org/1999/xlink" x="0px" y="0px"
	 viewBox="0 0 138 128" style="enable-background:new 0 0 138 128;" xml:space="preserve">
<path style="fill:#0A94FF;" d="M126.2,113.5c0,1.4-0.8,2.1-2.4,2.1c-1.9,0-4.8-0.1-8.6-0.3c-3.8-0.2-6.7-0.3-8.7-0.3
	c-1.9,0-4.8,0.1-8.7,0.3c-3.9,0.2-6.8,0.3-8.7,0.3c-1.5,0-2.3-0.9-2.3-2.7c0-3.3,0.1-8.2,0.4-14.8c0.3-6.6,0.4-11.6,0.4-14.8
	c0-1.4-0.1-2.1-0.4-2.1c-0.9,0-4,6.2-9.3,18.5c-5.3,12.3-8.4,18.5-9.4,18.5c-1.4,0-4.6-6.2-9.7-18.5c-5.1-12.3-8.1-18.5-9.1-18.5
	c-0.3,0-0.4,0.7-0.4,2.1c0,3.3,0.1,8.2,0.4,14.8c0.3,6.6,0.4,11.6,0.4,14.8c0,1.8-0.7,2.7-2.2,2.7c-2,0-4.9-0.1-8.7-0.3
	c-3.9-0.2-6.8-0.3-8.7-0.3c-1.9,0-4.8,0.1-8.6,0.3c-3.8,0.2-6.7,0.3-8.6,0.3c-1.6,0-2.4-0.7-2.4-2.1c0-5.3,0.2-13.3,0.7-24
	c0.5-10.7,0.7-18.7,0.7-24c0-5.7-0.2-14.2-0.7-25.5C11.3,28.7,11,20.2,11,14.5c0-1.1,1.1-1.6,3.3-1.6c1.6,0,4-0.1,7.3-0.2
	s5.6-0.2,7.3-0.2c1.8,0,4.6-0.2,8.3-0.6c3.7-0.4,6.5-0.6,8.3-0.6c0.4,0,1.3,1.1,2.6,3.2C53.3,23,59,33,65.1,44.3c2.1,4,3.4,6,3.7,6
	c0.7,0,1.9-1.9,3.5-5.6c1.7-4,4.3-9,7.8-14.9c5-8.3,7.8-13.2,8.6-14.5c1.1-2.1,2.1-3.1,3-3.1c1.8,0,4.6,0.1,8.3,0.3
	c3.7,0.2,6.5,0.3,8.3,0.3c1.8,0,4.5-0.2,8-0.5c3.5-0.3,6.2-0.5,8-0.5c1.2,0,1.8,0.6,1.8,1.7c0,5.8-0.2,14.4-0.7,26
	c-0.5,11.6-0.7,20.3-0.7,26.1c0,5.3,0.3,13.3,0.8,24C125.9,100.2,126.2,108.2,126.2,113.5z"/>
</svg>
