<?xml version="1.0" encoding="utf-8"?>
<!-- Generator: Adobe Illustrator 24.1.1, SVG Export Plug-In . SVG Version: 6.00 Build 0)  -->
<svg version="1.1" id="Layer_1" xmlns="http://www.w3.org/2000/svg" xmlns:xlink="http://www.w3.org/1999/xlink" x="0px" y="0px"
	 viewBox="0 0 730 128" style="enable-background:new 0 0 730 128;" xml:space="preserve">
<g>
	<path style="fill:#0A94FF;" d="M126.2,113.5c0,1.4-0.8,2.1-2.4,2.1c-1.9,0-4.8-0.1-8.6-0.3c-3.8-0.2-6.7-0.3-8.7-0.3
		c-1.9,0-4.8,0.1-8.7,0.3c-3.9,0.2-6.8,0.3-8.7,0.3c-1.5,0-2.3-0.9-2.3-2.7c0-3.3,0.1-8.2,0.4-14.8c0.3-6.6,0.4-11.6,0.4-14.8
		c0-1.4-0.1-2.1-0.4-2.1c-0.9,0-4,6.2-9.3,18.5c-5.3,12.3-8.4,18.5-9.4,18.5c-1.4,0-4.6-6.2-9.7-18.5c-5.1-12.3-8.1-18.5-9.1-18.5
		c-0.3,0-0.4,0.7-0.4,2.1c0,3.3,0.1,8.2,0.4,14.8c0.3,6.6,0.4,11.6,0.4,14.8c0,1.8-0.7,2.7-2.2,2.7c-2,0-4.9-0.1-8.7-0.3
		c-3.9-0.2-6.8-0.3-8.7-0.3c-1.9,0-4.8,0.1-8.6,0.3c-3.8,0.2-6.7,0.3-8.6,0.3c-1.6,0-2.4-0.7-2.4-2.1c0-5.3,0.2-13.3,0.7-24
		c0.5-10.7,0.7-18.7,0.7-24c0-5.7-0.2-14.2-0.7-25.5C11.3,28.7,11,20.2,11,14.5c0-1.1,1.1-1.6,3.3-1.6c1.6,0,4-0.1,7.3-0.2
		s5.6-0.2,7.3-0.2c1.8,0,4.6-0.2,8.3-0.6c3.7-0.4,6.5-0.6,8.3-0.6c0.4,0,1.3,1.1,2.6,3.2C53.3,23,59,33,65.1,44.3c2.1,4,3.4,6,3.7,6
		c0.7,0,1.9-1.9,3.5-5.6c1.7-4,4.3-9,7.8-14.9c5-8.3,7.8-13.2,8.6-14.5c1.1-2.1,2.1-3.1,3-3.1c1.8,0,4.6,0.1,8.3,0.3
		c3.7,0.2,6.5,0.3,8.3,0.3c1.8,0,4.5-0.2,8-0.5c3.5-0.3,6.2-0.5,8-0.5c1.2,0,1.8,0.6,1.8,1.7c0,5.8-0.2,14.4-0.7,26
		c-0.5,11.6-0.7,20.3-0.7,26.1c0,5.3,0.3,13.3,0.8,24C125.9,100.2,126.2,108.2,126.2,113.5z"/>
	<path style="fill:#0A94FF;" d="M209.7,76.7c0,5.1-1.6,8-4.8,8.8c-1.1,0.3-7.5,1.1-19,2.4l-17.1,2c0.6,1.7,2.2,3,4.8,4
		c2.1,0.7,4.2,1.1,6.4,1.1s5.1-0.6,8.8-1.8c3.7-1.2,5.8-1.8,6.3-1.8c0.8,0,1.4,0.4,1.9,1.3c0.7,1.7,1.9,4.1,3.5,7.3
		c0,0,0.9,1.4,2.8,4c1.7,2.3,2.5,3.6,2.5,3.9c0,0.5-0.3,1.1-1,1.7c-5.4,5.2-14.8,7.8-28.1,7.8c-12.7,0-22.6-3-29.7-9
		c-7.7-6.4-11.5-15.8-11.5-28.2c0-11.2,3.7-20.6,11.1-28.1c7.4-7.6,16.6-11.4,27.7-11.4c9.7,0,18,3.6,24.9,10.7
		C206.2,58.6,209.7,67,209.7,76.7z M180.4,71.4c0-1.5-0.6-2.9-1.7-4.2c-1.1-1.3-2.4-2-3.8-2c-1.7,0-3.3,0.6-4.7,1.9
		c-1.4,1.2-2.2,2.7-2.2,4.4c0,1.1,0.8,1.7,2.4,1.7c0.9,0,2.2-0.1,3.7-0.4c2-0.3,3.2-0.5,3.7-0.5C179.6,72.2,180.4,71.9,180.4,71.4z"
		/>
	<path style="fill:#0A94FF;" d="M343.2,59.4c0,2.8-0.1,7.1-0.3,12.8s-0.3,10-0.3,12.8c0,3.1,0.1,7.8,0.2,14
		c0.1,6.2,0.2,10.8,0.2,13.9c0,2-0.9,3-2.7,3c-1.7,0-4.1-0.1-7.4-0.4c-3.3-0.2-5.7-0.4-7.3-0.4c-1.7,0-4.3,0.1-7.7,0.2
		c-3.4,0.1-5.9,0.2-7.7,0.2c-1.9,0-2.9-1.2-2.9-3.7c0-2.2,0.1-5.6,0.2-10c0.1-4.4,0.2-7.8,0.2-10c0-1.8-0.1-4.4-0.2-7.9
		c-0.1-3.5-0.2-6.2-0.2-7.9c0-2.8-1.3-4.2-3.9-4.2c-2.7,0-4.3,2.1-4.9,6.4c0,0.5-0.1,3.7-0.1,9.6c0,2.8,0,7,0.1,12.5
		c0.1,5.6,0.1,9.7,0.1,12.5c0,2-0.9,3-2.6,3c-1.7,0-4.2-0.1-7.6-0.4c-3.4-0.2-5.9-0.4-7.5-0.4c-1.7,0-4.1,0.1-7.4,0.2
		s-5.8,0.2-7.4,0.2c-1.9,0-2.9-1.2-2.9-3.7c0-2.2,0-5.6,0.1-10c0.1-4.4,0.1-7.8,0.1-10c0-1.8,0-4.4-0.1-7.9c-0.1-3.5-0.1-6.2-0.1-8
		c0-2.8-1.4-4.2-4.3-4.2c-2.8,0-4.2,1.3-4.2,4v36.3c0,2.5-1.2,3.7-3.6,3.7c-1.5,0-3.7-0.1-6.7-0.4c-3-0.2-5.2-0.4-6.7-0.4
		c-1.7,0-4.2,0.1-7.5,0.2c-3.3,0.1-5.8,0.2-7.5,0.2c-2.1,0-3.1-1-3.1-3.1V77.9c0-12.2-0.9-21.4-2.6-27.5c-0.1-0.5-0.2-1-0.2-1.4
		c0-0.9,0.4-1.6,1.3-1.9c4.7-0.6,10.5-1.4,17.2-2.4c0.6-0.1,3.1-0.8,7.7-2.1c3.6-1,6-1.5,7.3-1.5c1.1,0,2.1,1.5,3.2,4.6
		c1,3.1,1.7,4.6,1.9,4.6c-0.3,0,2-1.4,7-4.3c5-2.9,9.4-4.3,13.3-4.3c11,0,18.1,3.8,21.3,11.4c6.5-7.6,14.3-11.4,23.2-11.4
		c5.8,0,10.9,1.4,15.4,4.3C340.7,49.5,343.2,53.9,343.2,59.4z"/>
	<path style="fill:#0A94FF;" d="M428.5,78.8c0,11.2-3.6,20.5-10.8,27.8c-7.2,7.3-16.5,11-27.7,11c-10.9,0-20.1-3.6-27.5-10.7
		c-7.4-7.1-11.1-16.1-11.1-27c0-11.4,3.5-20.9,10.6-28.3c7.3-7.6,16.6-11.4,27.9-11.4c11.2,0,20.5,3.6,27.7,10.9
		C424.9,58.3,428.5,67.5,428.5,78.8z M396.7,78.8c0-1.9-0.6-3.5-1.9-4.9c-1.3-1.3-2.9-2-4.8-2s-3.5,0.7-4.8,2
		c-1.3,1.3-1.9,3-1.9,4.9c0,1.9,0.6,3.5,1.9,4.9c1.3,1.3,2.9,2,4.8,2c2,0,3.6-0.7,4.8-2C396.1,82.3,396.7,80.7,396.7,78.8z"/>
	<path style="fill:#0A94FF;" d="M491.5,46.5c0,1.8-0.1,4.6-0.4,8.2c-0.3,3.7-0.4,6.5-0.4,8.3c0,1.8,0.1,4.5,0.2,8.2
		c0.1,3.6,0.2,6.4,0.2,8.2c0,2.1-2.2,3.2-6.7,3.2c-1,0-2.4-0.1-4-0.2c-1.7-0.1-2.7-0.2-3.1-0.2c-3.5,0-5.3,1.4-5.3,4.1
		c0,2.9,0.2,7.2,0.5,13c0.3,5.8,0.5,10.1,0.5,13c0,2.5-1.1,3.7-3.1,3.7c-1.6,0-3.9-0.1-7.1-0.2c-3.2-0.1-5.5-0.2-7.1-0.2
		c-1.7,0-4.2,0-7.5,0.1s-5.8,0.1-7.5,0.1c-2.1,0-3.1-1-3.1-3.1V78.3c0-10.6-1.1-19.8-3.1-27.5c-0.1-0.5-0.2-1-0.2-1.4
		c0-1,0.4-1.6,1.2-1.9c1.2-0.4,3.8-0.8,7.7-1.2c4.5-0.4,7.3-0.7,8.4-0.9c10-2,15.3-3,15.9-3c1,0,1.6,1.6,1.8,4.8
		c0.2,3.2,0.7,4.8,1.4,4.8c-0.4,0,1.5-1.3,5.9-4s8.8-4,13.3-4C490.9,44.3,491.5,45,491.5,46.5z"/>
	<path style="fill:#0A94FF;" d="M538.7,45.4c0,0.3,0,1-0.1,1.9c-1.7,18.4-2.6,30-2.6,34.8c0,3.3,0.1,8.2,0.3,14.8
		c0.2,6.6,0.3,11.5,0.3,14.8c0,1.6,0,2.5-0.1,2.8c-0.2,0.8-1,1.2-2.3,1.2c-1.7,0-4.3-0.1-7.7-0.3c-3.4-0.2-5.9-0.3-7.7-0.3
		c-1.7,0-4.3,0.1-7.7,0.3c-3.4,0.2-5.9,0.3-7.7,0.3c-1.3,0-2-0.4-2.3-1.2c-0.1-0.2-0.1-1.2-0.1-2.8c0-3.3,0.1-8.3,0.2-14.8
		c0.1-6.6,0.2-11.5,0.2-14.8c0-7.4-0.8-19-2.5-34.8c-0.1-0.9-0.2-1.6-0.2-2c0-1.3,0.8-1.9,2.3-1.9c2,0,4.9,0.3,8.8,1
		c3.9,0.6,6.9,1,8.9,1c2,0,5-0.3,8.9-1c3.9-0.6,6.9-1,8.8-1C538,43.4,538.7,44,538.7,45.4z M538,26.8c0,10.3-6.3,15.4-18.8,15.4
		c-5.3,0-9.7-1.2-13-3.7c-3.8-2.7-5.7-6.6-5.7-11.7c0-4.8,2-8.7,5.9-11.7c3.6-2.7,7.9-4.1,12.8-4.1c4.9,0,9.2,1.4,12.8,4.1
		C536,18,538,21.9,538,26.8z"/>
	<path style="fill:#0A94FF;" d="M638.9,66.6c0,5.5-1.5,10.2-4.5,14.3c-1.8,2.5-4.5,5.1-8.1,7.6c-2.9,2.1-4.4,3.3-4.4,3.9
		c0,0.9,2.1,4.5,6.3,10.9c4.2,6.4,6.3,9.8,6.3,10.3c0,1.5-5.1,2.2-15.2,2.2h-12.4c-5.4,0-8.4-0.4-8.9-1.3c-5.1-9.3-8.2-14-9.1-14
		c-0.5,0-1.5,0.1-3,0.4c0,1.4,0,3.5,0.1,6.3c0.1,2.9,0.1,5,0.1,6.4c0,1.8-0.6,2.6-1.8,2.6c-2,0-5-0.1-9-0.4s-7-0.4-9-0.4
		c-1.6,0-3.9,0-7.1,0.1c-3.2,0.1-5.5,0.1-7.1,0.1c-1.5,0-2.3-1-2.3-3.1c0-4.9,0-12.2,0.1-22c0-9.8,0.1-17.2,0.1-22
		c0-6.1-0.2-15.1-0.7-27.2c-0.5-12.1-0.7-21.1-0.7-27.1c0-1.4,0.8-2.1,2.3-2.1c3.6,0,9,0,16.1-0.1c2-0.1,5.2-0.5,9.8-1.2
		c4.2-0.6,7.5-1,9.8-1c0.9,0,1.3,0.8,1.3,2.4c0-1.6-0.4,3.6-1.3,15.6c-0.3,4.2-0.5,10.1-0.5,17.7c0,1.5,0.3,2.3,1,2.3
		c0.2,0,0.7-0.2,1.3-0.5c6.1-3.3,12.2-4.9,18.3-4.9C628.2,42.5,638.9,50.5,638.9,66.6z M599.2,76.2c0-2-0.7-3.7-2-5
		c-1.3-1.3-3-2-5-2c-4.6,0-7,1.6-7,4.8v5.6c0,2.7,2.3,4.1,7,4.1c2.1,0,3.8-0.7,5.1-2.2C598.6,80.1,599.2,78.3,599.2,76.2z"/>
	<path style="fill:#0A94FF;" d="M719.1,78.8c0,11.2-3.6,20.5-10.8,27.8c-7.2,7.3-16.5,11-27.7,11c-10.9,0-20.1-3.6-27.5-10.7
		c-7.4-7.1-11.1-16.1-11.1-27c0-11.4,3.5-20.9,10.6-28.3c7.3-7.6,16.6-11.4,27.9-11.4c11.2,0,20.5,3.6,27.7,10.9
		C715.4,58.3,719.1,67.5,719.1,78.8z M687.3,78.8c0-1.9-0.6-3.5-1.9-4.9c-1.3-1.3-2.9-2-4.8-2s-3.5,0.7-4.8,2s-1.9,3-1.9,4.9
		c0,1.9,0.6,3.5,1.9,4.9c1.3,1.3,2.9,2,4.8,2c2,0,3.6-0.7,4.8-2C686.6,82.3,687.3,80.7,687.3,78.8z"/>
</g>
</svg>
